<svg width="24" height="24" viewBox="0 0 24 24" fill="none" xmlns="http://www.w3.org/2000/svg">
    <g clip-path="url(#clip0_295_3361)">
        <path d="M0.56667 8.34666C0.190199 9.52786 -0.000957302 10.7603 3.6047e-06 12C-0.000957302 13.2397 0.190199 14.4721 0.56667 15.6533L12 16.1733L23.4333 15.6533C23.8098 14.4721 24.0009 13.2397 24 12C24.0009 10.7603 23.8098 9.52786 23.4333 8.34666L12 7.82666L0.56667 8.34666Z" fill="#F0F0F0"/>
        <path fill-rule="evenodd" clip-rule="evenodd" d="M12 7.82666L23.4334 8.34666V8.35333L23.7134 9.39999H0.286682L0.566682 8.34666L12 7.82666ZM0.566682 15.6467L0.286682 14.6H23.7134C23.6358 14.9529 23.5424 15.3021 23.4334 15.6467L12 16.1667L0.566682 15.6467Z" fill="#D80027"/>
        <path d="M12 24C17.221 24.0013 21.8438 20.6265 23.4333 15.6533H0.56665C2.15617 20.6265 6.77891 24.0013 12 24Z" fill="#1EB53A"/>
        <path d="M12 3.7149e-07C6.77891 -0.00129275 2.15617 3.37345 0.56665 8.34667H23.4333C21.8438 3.37345 17.221 -0.00129275 12 3.7149e-07Z" fill="#0099B5"/>
        <path d="M5.48669 4.95995C5.48669 3.83328 6.26669 2.89328 7.33336 2.66661C7.17336 2.63328 7.00003 2.61328 6.83336 2.61328C5.54003 2.61328 4.48669 3.66661 4.48669 4.95995C4.48669 6.25328 5.54003 7.3066 6.83336 7.3066C7.00669 7.3066 7.16669 7.2866 7.33336 7.25327C6.28003 7.01993 5.48669 6.08661 5.48669 4.95995Z" fill="#F0F0F0"/>
        <path d="M8.71334 6.02673L8.87335 6.5134H9.38668L8.97334 6.81337L9.13334 7.30004L8.72001 7.00004L8.30668 7.30004L8.46668 6.81337L8.05334 6.5134H8.56668L8.71334 6.02673Z" fill="#F0F0F0"/>
        <path d="M10.36 6.02673L10.52 6.5134H11.0333L10.62 6.81337L10.78 7.30004L10.3667 7.00004L9.95335 7.30004L10.1133 6.81337L9.70001 6.5134H10.2133L10.36 6.02673Z" fill="#F0F0F0"/>
        <path d="M12 6.02673L12.16 6.5134H12.6667L12.2534 6.81337L12.4134 7.30004L12 7.00004L11.5867 7.30004L11.7467 6.81337L11.3334 6.5134H11.8467L12 6.02673Z" fill="#F0F0F0"/>
        <path d="M13.64 6.02673L13.8 6.5134H14.3133L13.9 6.81337L14.06 7.30004L13.6466 7.00004L13.2333 7.30004L13.3933 6.81337L12.98 6.5134H13.4933L13.64 6.02673Z" fill="#F0F0F0"/>
        <path d="M15.28 6.02673L15.44 6.5134H15.9533L15.54 6.81337L15.7 7.30004L15.2867 7.00004L14.8733 7.30004L15.0333 6.81337L14.62 6.5134H15.1333L15.28 6.02673Z" fill="#F0F0F0"/>
        <path d="M10.36 4.32001L10.52 4.80667H11.0333L10.62 5.10667L10.78 5.59334L10.3667 5.29334L9.95335 5.59334L10.1133 5.10667L9.70001 4.80667H10.2133L10.36 4.32001Z" fill="#F0F0F0"/>
        <path d="M12 4.32001L12.16 4.80667H12.6667L12.2534 5.10667L12.4134 5.59334L12 5.29334L11.5867 5.59334L11.7467 5.10667L11.3334 4.80001H11.8467L12 4.32001Z" fill="#F0F0F0"/>
        <path d="M13.64 4.32001L13.8 4.80667H14.3133L13.9 5.10667L14.06 5.59334L13.6466 5.29334L13.2333 5.59334L13.3933 5.10667L12.98 4.80667H13.4933L13.64 4.32001Z" fill="#F0F0F0"/>
        <path d="M15.28 4.32001L15.44 4.80667H15.9533L15.54 5.10667L15.7 5.59334L15.2867 5.29334L14.8733 5.59334L15.0333 5.10667L14.62 4.80667H15.1333L15.28 4.32001Z" fill="#F0F0F0"/>
        <path d="M12 2.61328L12.16 3.09995H12.6667L12.2534 3.39995L12.4134 3.88661L12 3.58661L11.5867 3.88661L11.7467 3.39995L11.3334 3.09995H11.8467L12 2.61328Z" fill="#F0F0F0"/>
        <path d="M13.64 2.61328L13.8 3.09995H14.3133L13.9 3.39995L14.06 3.88661L13.6466 3.58661L13.2333 3.88661L13.3933 3.39995L12.98 3.09995H13.4933L13.64 2.61328Z" fill="#F0F0F0"/>
        <path d="M15.28 2.61328L15.44 3.09995H15.9533L15.54 3.39995L15.7 3.88661L15.2867 3.58661L14.8733 3.88661L15.0333 3.39995L14.62 3.09995H15.1333L15.28 2.61328Z" fill="#F0F0F0"/>
    </g>
    <defs>
        <clipPath id="clip0_295_3361">
            <rect width="24" height="24" fill="white"/>
        </clipPath>
    </defs>
</svg>
